11-11-11 (2011) DVDRip AC3 5.1 h264 NL Subs
.
[IMG]http://img249.imageshack.us/img249/2350/73328.jpg[/IMG]
.
Verenigde Staten / Spanje
Horror / Thriller
95 minuten

geregisseerd door Darren Lynn Bousman
met Timothy Gibbs, Michael Landes en Wendy Glenn

Na de tragische dood van zijn vrouw en kind reist de beroemde Amerikaanse auteur Joseph Crone van de Verenigde Staten naar Barcelona om zich te herenigen met zijn vervreemde broer Samuel en zijn stervende vader Richard. Echter, het lot heeft een ander plan voor Joseph wanneer zijn leven wordt geplaagd door vreemde gebeurtenissen en de constante waarnemingen van het getal 11. De nieuwsgierigheid slaat al snel om in een obsessie en Joseph begint zich te realiseren dat het getal een angstaanjagende betekenis heeft, niet alleen voor zichzelf maar mogelijk voor elke religie. Hij zit ge´soleerd in een vreemd land met alleen de steun van zijn metgezel Sadie en hij beseft al snel dat 11/11/11 meer is dan alleen een datum, het is een waarschuwing!

Vanaf 11 november in de bioscoop
Vanaf 8 november te koop op DVD en Blu-Ray
. 
http://www.moviemeter.nl/film/73328
.
PLOT
.
After his death of his wife and child, an author travels to Barcelona to see his estranged brother and dying father, where he learns that his life is plagued by events that occur on 11/11/11. 
. 
http://www.imdb.com/title/tt1712159/
.
INFO
.
Source: Retail DVD
Video: 720x300
Audio: AC3 5.1 English
Subs: NL Subs (Selectable vobsubs)
.
Enjoy
.
Format                           : AVI
Format/Info                      : Audio Video Interleave
Format profile                   : OpenDML
File size                        : 1.37 GiB
Duration                         : 1h 32mn
Overall bit rate                 : 2 111 Kbps
Movie name                       : DVD.Title1.DVDRip
Writing application              : Lavf52.78.4
Original source form/Name        : DVD

Video
ID                               : 0
Format                           : AVC
Format/Info                      : Advanced Video Codec
Codec ID                         : H264
Duration                         : 1h 32mn
Bit rate                         : 1 650 Kbps
Width                            : 720 pixels
Height                           : 300 pixels
Display aspect ratio             : 2.40:1
Frame rate                       : 25.000 fps
Color space                      : YUV
Chroma subsampling               : 4:2:0
Bits/(Pixel*Frame)               : 0.306
Stream size                      : 1.07 GiB (78%)

Audio
ID                               : 1
Format                           : AC-3
Format/Info                      : Audio Coding 3
Mode extension                   : CM (complete main)
Codec ID                         : 2000
Duration                         : 1h 32mn
Bit rate mode                    : Constant
Bit rate                         : 448 Kbps
Channel(s)                       : 6 channels
Channel positions                : Front: L C R, Side: L R, LFE
Sampling rate                    : 48.0 KHz
Bit depth                        : 16 bits
Stream size                      : 298 MiB (21%)
Alignment                        : Aligned on interleaves
Interleave, duration             : 32 ms (0.80 video frame)
Interleave, preload duration     : 32 ms


